<?xml version="1.0" encoding="utf-8"?>
<!-- Generator: Adobe Illustrator 17.0.0, SVG Export Plug-In . SVG Version: 6.00 Build 0)  -->
<!DOCTYPE svg PUBLIC "-//W3C//DTD SVG 1.1//EN" "http://www.w3.org/Graphics/SVG/1.1/DTD/svg11.dtd">
<svg version="1.1" id="Layer_1" xmlns="http://www.w3.org/2000/svg" xmlns:xlink="http://www.w3.org/1999/xlink" x="0px" y="0px"
	 width="879.658px" height="170.651px" viewBox="0 0 879.658 170.651" enable-background="new 0 0 879.658 170.651"
	 xml:space="preserve">
<g opacity="0.37">
	<path opacity="0.38" fill="#AE8CB8" d="M80.485,138h26.501v-12.989c0-0.144-1.052-0.262-2.35-0.262h-21.8
		c-1.298,0-2.35,0.117-2.35,0.262V138z"/>
	<path opacity="0.38" fill="#AE8CB8" d="M107.718,138h26.501V55.221c0-0.921-1.052-1.667-2.35-1.667h-21.8
		c-1.298,0-2.35,0.746-2.35,1.667V138z"/>
	<path opacity="0.38" fill="#AE8CB8" d="M53.499,138H80V78.907c0-0.657-1.052-1.19-2.35-1.19h-21.8c-1.298,0-2.35,0.533-2.35,1.19
		V138z"/>
	<path opacity="0.38" fill="#AE8CB8" d="M26.43,138h26.501v-31.235c0-0.347-1.052-0.629-2.35-0.629h-21.8
		c-1.298,0-2.35,0.282-2.35,0.629V138z"/>
	<path opacity="0.38" fill="#E399BA" d="M293.585,138h26.501v-12.989c0-0.144-1.052-0.262-2.35-0.262h-21.8
		c-1.298,0-2.35,0.117-2.35,0.262V138z"/>
	<path opacity="0.38" fill="#E399BA" d="M319.993,138h26.501V73.281c0-0.72-1.052-1.303-2.35-1.303h-21.8
		c-1.298,0-2.35,0.583-2.35,1.303V138z"/>
	<path opacity="0.38" fill="#E399BA" d="M267.425,138h26.501V78.907c0-0.657-1.052-1.19-2.35-1.19h-21.8
		c-1.298,0-2.35,0.533-2.35,1.19V138z"/>
	<path opacity="0.38" fill="#E399BA" d="M241.183,138h26.501v-22.584c0-0.251-1.052-0.455-2.35-0.455h-21.8
		c-1.298,0-2.35,0.204-2.35,0.455V138z"/>
	<path opacity="0.38" fill="#A9CBE1" d="M188.274,138h26.501v-12.989c0-0.144-1.052-0.262-2.35-0.262h-21.8
		c-1.298,0-2.35,0.117-2.35,0.262V138z"/>
	<path opacity="0.38" fill="#A9CBE1" d="M214.682,138h26.501V66.575c0-0.794-1.052-1.438-2.35-1.438h-21.8
		c-1.298,0-2.35,0.644-2.35,1.438V138z"/>
	<path opacity="0.38" fill="#A9CBE1" d="M162.114,138h26.501V78.907c0-0.657-1.052-1.19-2.35-1.19h-21.8
		c-1.298,0-2.35,0.533-2.35,1.19V138z"/>
	<path opacity="0.38" fill="#A9CBE1" d="M135.045,138h26.501v-22.584c0-0.251-1.052-0.455-2.35-0.455h-21.8
		c-1.298,0-2.35,0.204-2.35,0.455V138z"/>
	<path opacity="0.38" fill="#B1BBC7" d="M398.897,138h26.501v-12.989c0-0.144-1.052-0.262-2.35-0.262h-21.8
		c-1.298,0-2.35,0.117-2.35,0.262V138z"/>
	<path opacity="0.38" fill="#B1BBC7" d="M425.304,138h26.501V78.907c0-0.657-1.052-1.19-2.35-1.19h-21.8
		c-1.298,0-2.35,0.533-2.35,1.19V138z"/>
	<path opacity="0.38" fill="#B1BBC7" d="M372.737,138h26.501V90.46c0-0.529-1.052-0.957-2.35-0.957h-21.8
		c-1.298,0-2.35,0.429-2.35,0.957V138z"/>
	<path opacity="0.38" fill="#B1BBC7" d="M346.494,138h26.501v-22.584c0-0.251-1.052-0.455-2.35-0.455h-21.8
		c-1.298,0-2.35,0.204-2.35,0.455V138z"/>
	<path opacity="0.38" fill="#AE8CB8" d="M504.208,138h26.501V127.55c0-0.116-1.052-0.21-2.35-0.21h-21.8
		c-1.298,0-2.35,0.094-2.35,0.21V138z"/>
	<path opacity="0.38" fill="#AE8CB8" d="M530.616,138h26.501V75.531c0-0.695-1.052-1.258-2.35-1.258h-21.8
		c-1.298,0-2.35,0.563-2.35,1.258V138z"/>
	<path opacity="0.38" fill="#AE8CB8" d="M478.048,138h26.501V90.46c0-0.529-1.052-0.957-2.35-0.957h-21.8
		c-1.298,0-2.35,0.429-2.35,0.957V138z"/>
	<path opacity="0.38" fill="#AE8CB8" d="M451.805,138h26.501v-18.168c0-0.202-1.052-0.366-2.35-0.366h-21.8
		c-1.298,0-2.35,0.164-2.35,0.366V138z"/>
	<path opacity="0.38" fill="#E399BA" d="M717.308,138h26.501v-11.011c0-0.122-1.052-0.222-2.35-0.222h-21.8
		c-1.298,0-2.35,0.099-2.35,0.222V138z"/>
	<path opacity="0.38" fill="#E399BA" d="M744.542,138h26.501V86.098c0-0.577-1.052-1.045-2.35-1.045h-21.8
		c-1.298,0-2.35,0.468-2.35,1.045V138z"/>
	<path opacity="0.38" fill="#E399BA" d="M690.322,138h26.501V87.904c0-0.557-1.052-1.009-2.35-1.009h-21.8
		c-1.298,0-2.35,0.452-2.35,1.009V138z"/>
	<path opacity="0.38" fill="#E399BA" d="M663.254,138h26.501v-19.145c0-0.213-1.052-0.386-2.35-0.386h-21.8
		c-1.298,0-2.35,0.173-2.35,0.386V138z"/>
	<path opacity="0.38" fill="#A9CBE1" d="M609.519,138h26.501v-12.989c0-0.144-1.052-0.262-2.35-0.262h-21.8
		c-1.298,0-2.35,0.117-2.35,0.262V138z"/>
	<path opacity="0.38" fill="#A9CBE1" d="M635.927,138h26.501V73.281c0-0.72-1.052-1.303-2.35-1.303h-21.8
		c-1.298,0-2.35,0.583-2.35,1.303V138z"/>
	<path opacity="0.38" fill="#A9CBE1" d="M583.359,138h26.501V80.961c0-0.634-1.052-1.149-2.35-1.149h-21.8
		c-1.298,0-2.35,0.514-2.35,1.149V138z"/>
	<path opacity="0.38" fill="#A9CBE1" d="M557.117,138h26.501v-21.799c0-0.242-1.052-0.439-2.35-0.439h-21.8
		c-1.298,0-2.35,0.197-2.35,0.439V138z"/>
	<path opacity="0.38" fill="#B1BBC7" d="M825.924,138h26.501v-9.622c0-0.107-1.052-0.194-2.35-0.194h-21.8
		c-1.298,0-2.35,0.087-2.35,0.194V138z"/>
	<path opacity="0.38" fill="#B1BBC7" d="M853.157,138h26.501V87.646c0-0.56-1.052-1.014-2.35-1.014h-21.8
		c-1.298,0-2.35,0.454-2.35,1.014V138z"/>
	<path opacity="0.38" fill="#B1BBC7" d="M798.938,138h26.501V97.491c0-0.451-1.052-0.816-2.35-0.816h-21.8
		c-1.298,0-2.35,0.365-2.35,0.816V138z"/>
	<path opacity="0.38" fill="#B1BBC7" d="M771.869,138h26.501v-15.692c0-0.175-1.052-0.316-2.35-0.316h-21.8
		c-1.298,0-2.35,0.141-2.35,0.316V138z"/>
</g>
<path opacity="0.37" fill="#AE8CB8" d="M54.055,138h26.501v-21.226c0-0.236-1.052-0.427-2.35-0.427h-21.8
	c-1.298,0-2.35,0.191-2.35,0.427V138z"/>
<path opacity="0.37" fill="#AE8CB8" d="M81.288,138h26.501V2.724c0-1.504-1.052-2.724-2.35-2.724l-21.8,0
	c-1.298,0-2.35,1.22-2.35,2.724V138z"/>
<path opacity="0.37" fill="#AE8CB8" d="M27.069,138h26.501V41.432c0-1.074-1.052-1.945-2.35-1.945h-21.8
	c-1.298,0-2.35,0.871-2.35,1.945V138z"/>
<path opacity="0.37" fill="#AE8CB8" d="M0,138h26.501V86.957c0-0.568-1.052-1.028-2.35-1.028H2.35c-1.298,0-2.35,0.46-2.35,1.028
	L0,138z"/>
<path opacity="0.37" fill="#E399BA" d="M267.155,138h26.501v-21.226c0-0.236-1.052-0.427-2.35-0.427h-21.8
	c-1.298,0-2.35,0.191-2.35,0.427V138z"/>
<path opacity="0.37" fill="#E399BA" d="M293.563,138h26.501V32.238c0-1.176-1.052-2.13-2.35-2.13h-21.8
	c-1.298,0-2.35,0.954-2.35,2.13V138z"/>
<path opacity="0.37" fill="#E399BA" d="M240.995,138h26.501V41.432c0-1.074-1.052-1.945-2.35-1.945h-21.8
	c-1.298,0-2.35,0.871-2.35,1.945V138z"/>
<path opacity="0.37" fill="#E399BA" d="M214.752,138h26.501v-36.905c0-0.41-1.052-0.743-2.35-0.743h-21.8
	c-1.298,0-2.35,0.333-2.35,0.743V138z"/>
<path opacity="0.37" fill="#A9CBE1" d="M161.844,138h26.501v-21.226c0-0.236-1.052-0.427-2.35-0.427h-21.8
	c-1.298,0-2.35,0.191-2.35,0.427V138z"/>
<path opacity="0.37" fill="#A9CBE1" d="M188.252,138h26.501V21.279c0-1.298-1.052-2.35-2.35-2.35h-21.8
	c-1.298,0-2.35,1.052-2.35,2.35V138z"/>
<path opacity="0.37" fill="#A9CBE1" d="M135.684,138h26.501V41.432c0-1.074-1.052-1.945-2.35-1.945h-21.8
	c-1.298,0-2.35,0.871-2.35,1.945V138z"/>
<path opacity="0.37" fill="#A9CBE1" d="M108.615,138h26.501v-36.905c0-0.41-1.052-0.743-2.35-0.743h-21.8
	c-1.298,0-2.35,0.333-2.35,0.743V138z"/>
<path opacity="0.37" fill="#B1BBC7" d="M372.466,138h26.501v-21.226c0-0.236-1.052-0.427-2.35-0.427h-21.8
	c-1.298,0-2.35,0.191-2.35,0.427V138z"/>
<path opacity="0.37" fill="#B1BBC7" d="M398.874,138h26.501V41.432c0-1.074-1.052-1.945-2.35-1.945h-21.8
	c-1.298,0-2.35,0.871-2.35,1.945V138z"/>
<path opacity="0.37" fill="#B1BBC7" d="M346.306,138h26.501V60.312c0-0.864-1.052-1.564-2.35-1.564h-21.8
	c-1.298,0-2.35,0.7-2.35,1.564V138z"/>
<path opacity="0.37" fill="#B1BBC7" d="M320.064,138h26.501v-36.905c0-0.41-1.052-0.743-2.35-0.743h-21.8
	c-1.298,0-2.35,0.333-2.35,0.743V138z"/>
<path opacity="0.37" fill="#AE8CB8" d="M477.778,138h26.501v-17.076c0-0.19-1.052-0.344-2.35-0.344h-21.8
	c-1.298,0-2.35,0.154-2.35,0.344V138z"/>
<path opacity="0.37" fill="#AE8CB8" d="M504.186,138h26.501V35.914c0-1.135-1.052-2.056-2.35-2.056h-21.8
	c-1.298,0-2.35,0.92-2.35,2.056V138z"/>
<path opacity="0.37" fill="#AE8CB8" d="M451.618,138h26.501V60.312c0-0.864-1.052-1.564-2.35-1.564h-21.8
	c-1.298,0-2.35,0.7-2.35,1.564V138z"/>
<path opacity="0.37" fill="#AE8CB8" d="M425.375,138h26.501v-29.69c0-0.33-1.052-0.598-2.35-0.598h-21.8
	c-1.298,0-2.35,0.268-2.35,0.598V138z"/>
<path opacity="0.37" fill="#E399BA" d="M690.878,138h26.501v-17.994c0-0.2-1.052-0.362-2.35-0.362h-21.8
	c-1.298,0-2.35,0.162-2.35,0.362V138z"/>
<path opacity="0.37" fill="#E399BA" d="M718.112,138h26.501V53.184c0-0.943-1.052-1.708-2.35-1.708h-21.8
	c-1.298,0-2.35,0.765-2.35,1.708V138z"/>
<path opacity="0.37" fill="#E399BA" d="M663.892,138h26.501V56.135c0-0.91-1.052-1.649-2.35-1.649h-21.8
	c-1.298,0-2.35,0.738-2.35,1.649V138z"/>
<path opacity="0.37" fill="#E399BA" d="M636.824,138h26.501v-31.286c0-0.348-1.052-0.63-2.35-0.63h-21.8
	c-1.298,0-2.35,0.282-2.35,0.63V138z"/>
<path opacity="0.37" fill="#A9CBE1" d="M583.089,138h26.501v-21.226c0-0.236-1.052-0.427-2.35-0.427h-21.8
	c-1.298,0-2.35,0.191-2.35,0.427V138z"/>
<path opacity="0.37" fill="#A9CBE1" d="M609.497,138h26.501V32.238c0-1.176-1.052-2.13-2.35-2.13h-21.8
	c-1.298,0-2.35,0.954-2.35,2.13V138z"/>
<path opacity="0.37" fill="#A9CBE1" d="M556.929,138h26.501V44.788c0-1.037-1.052-1.877-2.35-1.877h-21.8
	c-1.298,0-2.35,0.84-2.35,1.877V138z"/>
<path opacity="0.37" fill="#A9CBE1" d="M530.686,138h26.501v-35.623c0-0.396-1.052-0.717-2.35-0.717h-21.8
	c-1.298,0-2.35,0.321-2.35,0.717V138z"/>
<path opacity="0.37" fill="#B1BBC7" d="M799.493,138h26.501v-15.724c0-0.175-1.052-0.317-2.35-0.317h-21.8
	c-1.298,0-2.35,0.142-2.35,0.317V138z"/>
<path opacity="0.37" fill="#B1BBC7" d="M826.727,138h26.501V55.713c0-0.915-1.052-1.657-2.35-1.657h-21.8
	c-1.298,0-2.35,0.742-2.35,1.657V138z"/>
<path opacity="0.37" fill="#B1BBC7" d="M772.507,138h26.501V71.801c0-0.736-1.052-1.333-2.35-1.333h-21.8
	c-1.298,0-2.35,0.597-2.35,1.333V138z"/>
<path opacity="0.37" fill="#B1BBC7" d="M745.439,138h26.501v-25.643c0-0.285-1.052-0.516-2.35-0.516h-21.8
	c-1.298,0-2.35,0.231-2.35,0.516V138z"/>
<text transform="matrix(1 0 0 1 85.218 151.6087)" opacity="0.83" fill="#FFFFFF" font-family="'Apercu'" font-size="11.6549">75</text>
<line opacity="0.5" fill="none" stroke="#FFFFFF" stroke-width="1.4569" stroke-miterlimit="10" x1="81.619" y1="141.98" x2="81.619" y2="170.651"/>
<text transform="matrix(1 0 0 1 191.9435 151.6087)" opacity="0.83" fill="#FFFFFF" font-family="'Apercu'" font-size="11.6549">72</text>
<line opacity="0.5" fill="none" stroke="#FFFFFF" stroke-width="1.4569" stroke-miterlimit="10" x1="188.345" y1="141.98" x2="188.345" y2="170.651"/>
<text transform="matrix(1 0 0 1 297.2552 151.6087)" opacity="0.83" fill="#FFFFFF" font-family="'Apercu'" font-size="11.6549">70</text>
<line opacity="0.5" fill="none" stroke="#FFFFFF" stroke-width="1.4569" stroke-miterlimit="10" x1="293.656" y1="141.98" x2="293.656" y2="170.651"/>
<text transform="matrix(1 0 0 1 402.5659 151.6087)" opacity="0.83" fill="#FFFFFF" font-family="'Apercu'" font-size="11.6549">68</text>
<line opacity="0.5" fill="none" stroke="#FFFFFF" stroke-width="1.4569" stroke-miterlimit="10" x1="398.967" y1="141.98" x2="398.967" y2="170.651"/>
<text transform="matrix(1 0 0 1 507.8776 151.6087)" opacity="0.83" fill="#FFFFFF" font-family="'Apercu'" font-size="11.6549">67</text>
<line opacity="0.5" fill="none" stroke="#FFFFFF" stroke-width="1.4569" stroke-miterlimit="10" x1="504.279" y1="141.98" x2="504.279" y2="170.651"/>
<text transform="matrix(1 0 0 1 613.5571 151.6087)" opacity="0.83" fill="#FFFFFF" font-family="'Apercu'" font-size="11.6549">65</text>
<line opacity="0.5" fill="none" stroke="#FFFFFF" stroke-width="1.4569" stroke-miterlimit="10" x1="609.959" y1="141.98" x2="609.959" y2="170.651"/>
<text transform="matrix(1 0 0 1 721.7112 151.6087)" opacity="0.83" fill="#FFFFFF" font-family="'Apercu'" font-size="11.6549">63</text>
<line opacity="0.5" fill="none" stroke="#FFFFFF" stroke-width="1.4569" stroke-miterlimit="10" x1="718.112" y1="141.98" x2="718.112" y2="170.651"/>
<text transform="matrix(1 0 0 1 830.3264 151.6087)" opacity="0.83" fill="#FFFFFF" font-family="'Apercu'" font-size="11.6549">62</text>
<line opacity="0.5" fill="none" stroke="#FFFFFF" stroke-width="1.4569" stroke-miterlimit="10" x1="826.727" y1="141.98" x2="826.727" y2="170.651"/>
</svg>
