<?xml version="1.0" encoding="utf-8"?>
<!-- Generator: Adobe Illustrator 17.0.0, SVG Export Plug-In . SVG Version: 6.00 Build 0)  -->
<!DOCTYPE svg PUBLIC "-//W3C//DTD SVG 1.1//EN" "http://www.w3.org/Graphics/SVG/1.1/DTD/svg11.dtd">
<svg version="1.1" id="Layer_1" xmlns="http://www.w3.org/2000/svg" xmlns:xlink="http://www.w3.org/1999/xlink" x="0px" y="0px"
	 width="658.335px" height="180.638px" viewBox="0 0 658.335 180.638" enable-background="new 0 0 658.335 180.638"
	 xml:space="preserve">
<polygon fill="none" stroke="#FFFFFF" stroke-width="0.7284" stroke-miterlimit="10" points="534.054,0.364 534.054,18.575 
	525.949,25.131 519.075,18.257 519.075,0.364 "/>
<rect x="210.826" y="157.55" fill="#79D0E5" width="26.217" height="23.088"/>
<g>
	<rect x="106.243" y="73.768" fill="#E1C0DC" width="26.501" height="106.87"/>
	<rect x="132.403" y="147.568" fill="#D0C4DC" width="26.501" height="33.07"/>
	<rect x="158.563" y="162.329" fill="#BEC8DD" width="26.501" height="18.31"/>
	<rect x="184.723" y="166.019" fill="#ABCBDF" width="26.501" height="14.62"/>
	<rect x="210.883" y="129.118" fill="#97CDE0" width="26.501" height="51.52"/>
	<rect x="237.043" y="166.019" fill="#7ED1E2" width="26.501" height="14.62"/>
</g>
<g>
	<rect x="368.127" y="73.768" fill="#E1C0DC" width="26.501" height="106.87"/>
	<rect x="341.967" y="175.244" fill="#CFC4DD" width="26.501" height="5.394"/>
	<rect x="315.807" y="149.414" fill="#BDC7DF" width="26.501" height="31.225"/>
	<rect x="289.647" y="140.188" fill="#A9CAE0" width="26.501" height="40.45"/>
	<rect x="263.487" y="92.218" fill="#93CCE2" width="26.501" height="88.42"/>
	<rect x="237.327" y="55.318" fill="#79D0E5" width="26.501" height="125.32"/>
</g>
<rect x="368.468" y="90.534" fill="#D0C4DC" width="26.501" height="90.104"/>
<rect x="394.628" y="110.93" fill="#BEC8DD" width="26.501" height="69.708"/>
<rect x="420.788" y="157.55" fill="#ABCBDF" width="26.501" height="23.088"/>
<rect x="446.948" y="157.55" fill="#97CDE0" width="26.501" height="23.088"/>
<rect x="473.108" y="157.55" fill="#7ED1E2" width="26.501" height="23.088"/>
<g>
	<rect x="630.409" y="166.019" fill="#E1C0DC" width="26.501" height="14.62"/>
	<rect x="604.249" y="55.318" fill="#CFC4DD" width="26.501" height="125.32"/>
	<rect x="578.089" y="158.639" fill="#BDC7DF" width="26.501" height="22"/>
	<rect x="551.929" y="147.568" fill="#A9CAE0" width="26.501" height="33.07"/>
	<rect x="525.769" y="92.218" fill="#93CCE2" width="26.501" height="88.42"/>
	<rect x="499.609" y="73.768" fill="#79D0E5" width="26.501" height="106.87"/>
</g>
<rect x="53.582" y="55.318" fill="#CFC4DD" width="26.501" height="125.32"/>
<rect x="27.422" y="158.639" fill="#BDC7DF" width="26.501" height="22"/>
<rect x="1.262" y="147.568" fill="#A9CAE0" width="26.501" height="33.07"/>
<rect x="79.742" y="166.019" fill="#E1C0DC" width="26.501" height="14.62"/>
<line fill="none" stroke="#FFFFFF" stroke-width="2.9137" stroke-miterlimit="10" x1="1.457" y1="180.638" x2="1.457" y2="164.198"/>
<line fill="none" stroke="#FFFFFF" stroke-width="0.7284" stroke-miterlimit="10" x1="27.674" y1="180.638" x2="27.674" y2="164.198"/>
<line fill="none" stroke="#FFFFFF" stroke-width="0.7284" stroke-miterlimit="10" x1="53.891" y1="180.638" x2="53.891" y2="164.198"/>
<line fill="none" stroke="#FFFFFF" stroke-width="0.7284" stroke-miterlimit="10" x1="80.107" y1="180.638" x2="80.107" y2="164.198"/>
<line fill="none" stroke="#FFFFFF" stroke-width="0.7284" stroke-miterlimit="10" x1="106.324" y1="180.638" x2="106.324" y2="164.198"/>
<line fill="none" stroke="#FFFFFF" stroke-width="2.9137" stroke-miterlimit="10" x1="132.541" y1="180.638" x2="132.541" y2="164.198"/>
<line fill="none" stroke="#FFFFFF" stroke-width="0.7284" stroke-miterlimit="10" x1="158.758" y1="180.638" x2="158.758" y2="164.198"/>
<line fill="none" stroke="#FFFFFF" stroke-width="0.7284" stroke-miterlimit="10" x1="184.975" y1="180.638" x2="184.975" y2="164.198"/>
<line fill="none" stroke="#FFFFFF" stroke-width="0.7284" stroke-miterlimit="10" x1="211.192" y1="180.638" x2="211.192" y2="164.198"/>
<line fill="none" stroke="#FFFFFF" stroke-width="0.7284" stroke-miterlimit="10" x1="237.408" y1="180.638" x2="237.408" y2="164.198"/>
<line fill="none" stroke="#FFFFFF" stroke-width="2.9137" stroke-miterlimit="10" x1="263.625" y1="180.638" x2="263.625" y2="164.198"/>
<line fill="none" stroke="#FFFFFF" stroke-width="0.7284" stroke-miterlimit="10" x1="289.842" y1="180.638" x2="289.842" y2="164.198"/>
<line fill="none" stroke="#FFFFFF" stroke-width="0.7284" stroke-miterlimit="10" x1="316.059" y1="180.638" x2="316.059" y2="164.198"/>
<line fill="none" stroke="#FFFFFF" stroke-width="0.7284" stroke-miterlimit="10" x1="342.276" y1="180.638" x2="342.276" y2="164.198"/>
<line fill="none" stroke="#FFFFFF" stroke-width="0.7284" stroke-miterlimit="10" x1="368.493" y1="180.638" x2="368.493" y2="164.198"/>
<line fill="none" stroke="#FFFFFF" stroke-width="2.9137" stroke-miterlimit="10" x1="394.709" y1="180.638" x2="394.709" y2="164.198"/>
<line fill="none" stroke="#FFFFFF" stroke-width="2.9137" stroke-miterlimit="10" x1="394.709" y1="147.568" x2="394.709" y2="31.797"/>
<line fill="none" stroke="#FFFFFF" stroke-width="2.9137" stroke-miterlimit="10" x1="526.11" y1="147.568" x2="526.11" y2="31.797"/>
<line fill="none" stroke="#FFFFFF" stroke-width="2.9137" stroke-miterlimit="10" x1="656.878" y1="147.568" x2="656.878" y2="31.797"/>
<line fill="none" stroke="#FFFFFF" stroke-width="2.9137" stroke-miterlimit="10" x1="1.457" y1="147.568" x2="1.457" y2="31.797"/>
<line fill="none" stroke="#FFFFFF" stroke-width="2.9137" stroke-miterlimit="10" x1="263.487" y1="147.568" x2="263.487" y2="31.797"/>
<line fill="none" stroke="#FFFFFF" stroke-width="2.9137" stroke-miterlimit="10" x1="133.215" y1="147.568" x2="133.215" y2="31.797"/>
<line fill="none" stroke="#FFFFFF" stroke-width="0.7284" stroke-miterlimit="10" x1="420.926" y1="180.638" x2="420.926" y2="164.198"/>
<line fill="none" stroke="#FFFFFF" stroke-width="0.7284" stroke-miterlimit="10" x1="447.143" y1="180.638" x2="447.143" y2="164.198"/>
<line fill="none" stroke="#FFFFFF" stroke-width="0.7284" stroke-miterlimit="10" x1="473.36" y1="180.638" x2="473.36" y2="164.198"/>
<line fill="none" stroke="#FFFFFF" stroke-width="0.7284" stroke-miterlimit="10" x1="499.577" y1="180.638" x2="499.577" y2="164.198"/>
<line fill="none" stroke="#FFFFFF" stroke-width="2.9137" stroke-miterlimit="10" x1="525.794" y1="180.638" x2="525.794" y2="164.198"/>
<line fill="none" stroke="#FFFFFF" stroke-width="0.7284" stroke-miterlimit="10" x1="552.01" y1="180.638" x2="552.01" y2="164.198"/>
<line fill="none" stroke="#FFFFFF" stroke-width="0.7284" stroke-miterlimit="10" x1="578.227" y1="180.638" x2="578.227" y2="164.198"/>
<line fill="none" stroke="#FFFFFF" stroke-width="0.7284" stroke-miterlimit="10" x1="604.444" y1="180.638" x2="604.444" y2="164.198"/>
<line fill="none" stroke="#FFFFFF" stroke-width="0.7284" stroke-miterlimit="10" x1="630.661" y1="180.638" x2="630.661" y2="164.198"/>
<line fill="none" stroke="#FFFFFF" stroke-width="2.9137" stroke-miterlimit="10" x1="656.878" y1="180.638" x2="656.878" y2="164.198"/>
<polygon fill="#FFFFFF" points="402.936,0.364 402.936,18.575 394.831,25.131 387.957,18.257 387.957,0.364 "/>
<text transform="matrix(1 0 0 1 412.0523 25.1296)" fill="#FFFFFF" font-family="'Apercu-Bold'" font-size="16.0256" letter-spacing="6">65bpm</text>
<polygon fill="none" stroke="#FFFFFF" stroke-width="0.7284" stroke-miterlimit="10" points="140.705,0.364 140.705,18.575 
	132.599,25.131 125.725,18.257 125.725,0.364 "/>
<text transform="matrix(1 0 0 1 145.6515 25.1296)" fill="#FFFFFF" font-family="'Apercu'" font-size="16.0256" letter-spacing="6">60bpm</text>
</svg>
