<?xml version="1.0" encoding="utf-8"?>
<!-- Generator: Adobe Illustrator 17.0.0, SVG Export Plug-In . SVG Version: 6.00 Build 0)  -->
<!DOCTYPE svg PUBLIC "-//W3C//DTD SVG 1.1//EN" "http://www.w3.org/Graphics/SVG/1.1/DTD/svg11.dtd">
<svg version="1.1" id="Layer_1" xmlns="http://www.w3.org/2000/svg" xmlns:xlink="http://www.w3.org/1999/xlink" x="0px" y="0px"
	 width="879.658px" height="170.651px" viewBox="0 0 879.658 170.651" enable-background="new 0 0 879.658 170.651"
	 xml:space="preserve">
<text transform="matrix(1 0 0 1 85.218 151.6087)" opacity="0.83" fill="#FFFFFF" enable-background="new    " font-family="'Apercu'" font-size="11.6549">75</text>
<line opacity="0.5" fill="none" stroke="#FFFFFF" stroke-width="1.4569" stroke-miterlimit="10" enable-background="new    " x1="81.619" y1="141.98" x2="81.619" y2="170.651"/>
<text transform="matrix(1 0 0 1 191.9435 151.6087)" opacity="0.83" fill="#FFFFFF" enable-background="new    " font-family="'Apercu'" font-size="11.6549">72</text>
<line opacity="0.5" fill="none" stroke="#FFFFFF" stroke-width="1.4569" stroke-miterlimit="10" enable-background="new    " x1="188.345" y1="141.98" x2="188.345" y2="170.651"/>
<text transform="matrix(1 0 0 1 297.2552 151.6087)" opacity="0.83" fill="#FFFFFF" enable-background="new    " font-family="'Apercu'" font-size="11.6549">70</text>
<line opacity="0.5" fill="none" stroke="#FFFFFF" stroke-width="1.4569" stroke-miterlimit="10" enable-background="new    " x1="293.656" y1="141.98" x2="293.656" y2="170.651"/>
<text transform="matrix(1 0 0 1 402.5659 151.6087)" opacity="0.83" fill="#FFFFFF" enable-background="new    " font-family="'Apercu'" font-size="11.6549">68</text>
<line opacity="0.5" fill="none" stroke="#FFFFFF" stroke-width="1.4569" stroke-miterlimit="10" enable-background="new    " x1="398.967" y1="141.98" x2="398.967" y2="170.651"/>
<text transform="matrix(1 0 0 1 507.8776 151.6087)" opacity="0.83" fill="#FFFFFF" enable-background="new    " font-family="'Apercu'" font-size="11.6549">67</text>
<line opacity="0.5" fill="none" stroke="#FFFFFF" stroke-width="1.4569" stroke-miterlimit="10" enable-background="new    " x1="504.279" y1="141.98" x2="504.279" y2="170.651"/>
<text transform="matrix(1 0 0 1 613.5571 151.6087)" opacity="0.83" fill="#FFFFFF" enable-background="new    " font-family="'Apercu'" font-size="11.6549">65</text>
<line opacity="0.5" fill="none" stroke="#FFFFFF" stroke-width="1.4569" stroke-miterlimit="10" enable-background="new    " x1="609.959" y1="141.98" x2="609.959" y2="170.651"/>
<text transform="matrix(1 0 0 1 721.7112 151.6087)" opacity="0.83" fill="#FFFFFF" enable-background="new    " font-family="'Apercu'" font-size="11.6549">63</text>
<line opacity="0.5" fill="none" stroke="#FFFFFF" stroke-width="1.4569" stroke-miterlimit="10" enable-background="new    " x1="718.112" y1="141.98" x2="718.112" y2="170.651"/>
<text transform="matrix(1 0 0 1 830.3264 151.6087)" opacity="0.83" fill="#FFFFFF" enable-background="new    " font-family="'Apercu'" font-size="11.6549">62</text>
<line opacity="0.5" fill="none" stroke="#FFFFFF" stroke-width="1.4569" stroke-miterlimit="10" enable-background="new    " x1="826.727" y1="141.98" x2="826.727" y2="170.651"/>
</svg>
